<svg width="376" height="34" fill="none" xmlns="http://www.w3.org/2000/svg"><path d="M187 13.7c-4.2-1.6-6-3-6-6.2 0-3 2.3-4.9 6-4.9 2.9 0 5 .7 7.2 2.1l.5.3V2.5h-.2A14.3 14.3 0 00187 .6c-6 0-10.4 3.8-10.4 9 0 5.8 3.6 7.7 8.7 9.7 5.8 2.3 6.9 4.2 6.9 6.8 0 3.4-2.6 5.2-7.1 5.2-3 0-6-1-8.2-2.7l-.5-.3V31l.2.2c2.1 1.4 5.1 2.1 8.4 2.1 7.1 0 11.6-3.6 11.6-9.6 0-5.9-3.8-7.8-9.6-10zM80.5 1.2h-5.6v16.4l5.6-6.2V1.2zM100.3 33l-14-19L98 1.2h-3L75 23.8v9.1h5.6V20.6l2.2-2.5 11 14.8h6.6zM115.7 1.2h-5.5v16.4l5.5-6.2V1.2zM110.4 33h5.6V20.5l2.3-2.5 11 14.8h6.6l-14-18.9 11.6-12.8h-3l-20 22.6v9.1zM26.3 1.2h-5.6v31.7h5.6V1.2zM5.6 1.2H0v31.7h5.6V17.4h9.7v-1.9H5.6V1.2zM49.4 1.2L36.7 32.9h2.5l4-10.2h6l-.7-2H44l5-12.9L58.7 33h6L52.3 1.2h-2.9zM215 1.2l-12.8 31.7h2.5l4-10.2h6l-.7-2h-4.5l5-12.9 9.7 25.1h6L217.8 1.2h-2.9zM156.7 1.2h-2.9l-12.6 31.7h2.4l4-10.2h6.1l-.7-2h-4.6l5-12.9 9.7 25.1h6L156.7 1.2zM262.7 1.2v24.7L246.4 1.2h-6v1l20 30.7h4.6V1.2h-2.3zM240.3 33h2.4V13.7l-2.4-3.6V33z" fill="#fff"/><path d="M372 29.5h-11c-5.2 0-4.5-1.7-4.5-7V1H351v32h24.1v-4.5l-3.1 1zM306.6 30a21 21 0 01-5.6.9c-6.4 0-10.3-5.2-10.3-13.9 0-8.5 4.3-13.9 11-13.9a13 13 0 018.3 2.4l.7.5V3.1l-.2-.1a17 17 0 00-8.8-2C292 1 285 7.7 285 17c0 9.6 6.4 16 16 16a22 22 0 0010.8-2.6l.2-.1-.2-3.2-2.3 1.9-3 1zM333.1 1h-3L317 33h2.6l4.1-10.3h6.3l-.8-2h-4.7l5.3-13 10 25.3h6.2L333.1 1z" fill="#A8A8A8"/></svg>
